<svg width="32" height="18" viewBox="0 0 32 18" fill="none" xmlns="http://www.w3.org/2000/svg">
<g clip-path="url(#clip0_3758_11842)">
<path d="M19.0168 7.98671C19.0892 8.07246 19.8161 7.44933 19.9223 7.359C22.4841 5.20491 24.8955 2.84501 27.4572 0.687491C28.9223 -0.344964 30.8612 0.462249 31.2286 2.2093L31.2263 15.4757C29.7759 20.3762 22.9905 16.7506 26.1413 12.6196L30.3196 8.95856C29.5136 8.24854 28.3752 8.27712 27.5035 8.85223C24.3686 11.2899 21.5084 14.4993 18.3916 16.9015C14.852 19.6307 11.543 15.4677 13.8719 12.6733L18.1101 8.95856C17.3007 8.28055 16.1532 8.2634 15.2963 8.85452C12.193 11.3082 9.37695 14.3381 6.29518 16.7872C2.65041 19.6844 -0.948 15.5546 1.99924 12.328L15.3155 0.641756C16.3307 -0.0614108 17.7518 0.177552 18.5103 1.12425C18.6381 1.28318 19.0168 1.95319 19.0168 2.0984V7.98671Z" fill="white"/>
</g>
<defs>
<clipPath id="clip0_3758_11842">
<rect width="30.3146" height="17.602" fill="white" transform="translate(0.914551 0.231506)"/>
</clipPath>
</defs>
</svg>
