<svg width="156" height="25" viewBox="0 0 156 25" fill="none" xmlns="http://www.w3.org/2000/svg">
<mask id="path-1-outside-1_3758_11762" maskUnits="userSpaceOnUse" x="50.9573" y="3.78662" width="105" height="17" fill="black">
<rect fill="white" x="50.9573" y="3.78662" width="105" height="17"/>
<path d="M73.975 5.17392V19.7866H71.9022V7.24664L64.0259 19.7866H62.0309L53.7918 7.24664V19.7866H51.7191V5.17392H54.9318L62.9636 17.4807L70.7363 5.17392H73.975ZM86.774 19.968H86.1522C84.8049 19.968 83.6909 19.9334 82.8099 19.8643C81.929 19.7953 81.1345 19.6571 80.4263 19.4498C79.7354 19.2253 79.1913 18.9575 78.794 18.6466C78.414 18.3184 78.0945 17.8694 77.8354 17.2994C77.5936 16.7121 77.4295 16.073 77.3431 15.3821C77.274 14.6739 77.2395 13.7757 77.2395 12.6875V12.273C77.2395 11.1848 77.274 10.2866 77.3431 9.57846C77.4295 8.87028 77.5936 8.23119 77.8354 7.66119C78.0945 7.07391 78.414 6.62482 78.794 6.31392C79.1913 5.98573 79.744 5.71801 80.4522 5.51074C81.1604 5.30346 81.9463 5.16528 82.8099 5.09619C83.6909 5.0271 84.8049 4.99255 86.1522 4.99255H86.774C88.1213 4.99255 89.2268 5.0271 90.0904 5.09619C90.9713 5.16528 91.7658 5.30346 92.474 5.51074C93.1822 5.71801 93.7263 5.98573 94.1063 6.31392C94.5036 6.62482 94.8231 7.07391 95.0649 7.66119C95.324 8.23119 95.4881 8.87028 95.5572 9.57846C95.6436 10.2866 95.6867 11.1848 95.6867 12.273V12.6875C95.6867 13.7757 95.6436 14.6739 95.5572 15.3821C95.4881 16.073 95.324 16.7121 95.0649 17.2994C94.8231 17.8694 94.5036 18.3184 94.1063 18.6466C93.7263 18.9575 93.1822 19.2253 92.474 19.4498C91.7831 19.6571 90.9972 19.7953 90.1163 19.8643C89.2354 19.9334 88.1213 19.968 86.774 19.968ZM86.204 17.6621H86.7222C87.8104 17.6621 88.6913 17.6448 89.3649 17.6103C90.0386 17.5584 90.6518 17.4548 91.2045 17.2994C91.7572 17.1439 92.1717 16.9625 92.4481 16.7553C92.7245 16.5307 92.9577 16.1939 93.1477 15.7448C93.3377 15.2957 93.4499 14.8034 93.4845 14.268C93.5363 13.7325 93.5622 13.0244 93.5622 12.1435C93.5622 11.228 93.5017 10.5025 93.3808 9.96709C93.2772 9.43164 93.0958 8.97391 92.8367 8.59391C92.5949 8.19664 92.189 7.91164 91.619 7.73891C91.049 7.56619 90.4013 7.44528 89.6758 7.37619C88.9677 7.3071 87.9831 7.27255 86.7222 7.27255H86.204C84.9431 7.27255 83.9499 7.3071 83.2245 7.37619C82.5163 7.44528 81.8772 7.56619 81.3072 7.73891C80.7372 7.91164 80.3227 8.19664 80.0636 8.59391C79.8218 8.97391 79.6404 9.43164 79.5195 9.96709C79.4159 10.5025 79.364 11.228 79.364 12.1435C79.364 13.0244 79.3813 13.7325 79.4159 14.268C79.4677 14.8034 79.5886 15.2957 79.7786 15.7448C79.9686 16.1939 80.2018 16.5307 80.4781 16.7553C80.7545 16.9625 81.169 17.1439 81.7218 17.2994C82.2745 17.4548 82.8877 17.5584 83.5613 17.6103C84.2349 17.6448 85.1159 17.6621 86.204 17.6621ZM116.265 5.17392L108.026 19.7866H105.513L97.2223 5.17392H100.098L106.705 17.1698L113.364 5.17392H116.265ZM126.892 14.268V19.7866H124.794V14.268L116.373 5.17392H119.56L125.934 12.3766L132.178 5.17392H135.339L126.892 14.268ZM146.465 5.17392L154.652 19.7866H152.346L150.61 16.5998H139.443C139.288 16.8762 139.011 17.3857 138.614 18.1284C138.217 18.8539 137.906 19.4066 137.681 19.7866H135.401L143.848 5.17392H146.465ZM140.635 14.4753H149.47L145.454 7.24664H144.832C144.349 8.07573 143.641 9.28482 142.708 10.8739C141.792 12.4457 141.101 13.6462 140.635 14.4753Z"/>
</mask>
<path d="M73.975 5.17392V19.7866H71.9022V7.24664L64.0259 19.7866H62.0309L53.7918 7.24664V19.7866H51.7191V5.17392H54.9318L62.9636 17.4807L70.7363 5.17392H73.975ZM86.774 19.968H86.1522C84.8049 19.968 83.6909 19.9334 82.8099 19.8643C81.929 19.7953 81.1345 19.6571 80.4263 19.4498C79.7354 19.2253 79.1913 18.9575 78.794 18.6466C78.414 18.3184 78.0945 17.8694 77.8354 17.2994C77.5936 16.7121 77.4295 16.073 77.3431 15.3821C77.274 14.6739 77.2395 13.7757 77.2395 12.6875V12.273C77.2395 11.1848 77.274 10.2866 77.3431 9.57846C77.4295 8.87028 77.5936 8.23119 77.8354 7.66119C78.0945 7.07391 78.414 6.62482 78.794 6.31392C79.1913 5.98573 79.744 5.71801 80.4522 5.51074C81.1604 5.30346 81.9463 5.16528 82.8099 5.09619C83.6909 5.0271 84.8049 4.99255 86.1522 4.99255H86.774C88.1213 4.99255 89.2268 5.0271 90.0904 5.09619C90.9713 5.16528 91.7658 5.30346 92.474 5.51074C93.1822 5.71801 93.7263 5.98573 94.1063 6.31392C94.5036 6.62482 94.8231 7.07391 95.0649 7.66119C95.324 8.23119 95.4881 8.87028 95.5572 9.57846C95.6436 10.2866 95.6867 11.1848 95.6867 12.273V12.6875C95.6867 13.7757 95.6436 14.6739 95.5572 15.3821C95.4881 16.073 95.324 16.7121 95.0649 17.2994C94.8231 17.8694 94.5036 18.3184 94.1063 18.6466C93.7263 18.9575 93.1822 19.2253 92.474 19.4498C91.7831 19.6571 90.9972 19.7953 90.1163 19.8643C89.2354 19.9334 88.1213 19.968 86.774 19.968ZM86.204 17.6621H86.7222C87.8104 17.6621 88.6913 17.6448 89.3649 17.6103C90.0386 17.5584 90.6518 17.4548 91.2045 17.2994C91.7572 17.1439 92.1717 16.9625 92.4481 16.7553C92.7245 16.5307 92.9577 16.1939 93.1477 15.7448C93.3377 15.2957 93.4499 14.8034 93.4845 14.268C93.5363 13.7325 93.5622 13.0244 93.5622 12.1435C93.5622 11.228 93.5017 10.5025 93.3808 9.96709C93.2772 9.43164 93.0958 8.97391 92.8367 8.59391C92.5949 8.19664 92.189 7.91164 91.619 7.73891C91.049 7.56619 90.4013 7.44528 89.6758 7.37619C88.9677 7.3071 87.9831 7.27255 86.7222 7.27255H86.204C84.9431 7.27255 83.9499 7.3071 83.2245 7.37619C82.5163 7.44528 81.8772 7.56619 81.3072 7.73891C80.7372 7.91164 80.3227 8.19664 80.0636 8.59391C79.8218 8.97391 79.6404 9.43164 79.5195 9.96709C79.4159 10.5025 79.364 11.228 79.364 12.1435C79.364 13.0244 79.3813 13.7325 79.4159 14.268C79.4677 14.8034 79.5886 15.2957 79.7786 15.7448C79.9686 16.1939 80.2018 16.5307 80.4781 16.7553C80.7545 16.9625 81.169 17.1439 81.7218 17.2994C82.2745 17.4548 82.8877 17.5584 83.5613 17.6103C84.2349 17.6448 85.1159 17.6621 86.204 17.6621ZM116.265 5.17392L108.026 19.7866H105.513L97.2223 5.17392H100.098L106.705 17.1698L113.364 5.17392H116.265ZM126.892 14.268V19.7866H124.794V14.268L116.373 5.17392H119.56L125.934 12.3766L132.178 5.17392H135.339L126.892 14.268ZM146.465 5.17392L154.652 19.7866H152.346L150.61 16.5998H139.443C139.288 16.8762 139.011 17.3857 138.614 18.1284C138.217 18.8539 137.906 19.4066 137.681 19.7866H135.401L143.848 5.17392H146.465ZM140.635 14.4753H149.47L145.454 7.24664H144.832C144.349 8.07573 143.641 9.28482 142.708 10.8739C141.792 12.4457 141.101 13.6462 140.635 14.4753Z" fill="white"/>
<path d="M73.975 5.17392H74.4988V4.65012H73.975V5.17392ZM73.975 19.7866V20.3104H74.4988V19.7866H73.975ZM71.9022 19.7866H71.3784V20.3104H71.9022V19.7866ZM71.9022 7.24664H72.426V5.42791L71.4587 6.96804L71.9022 7.24664ZM64.0259 19.7866V20.3104H64.3154L64.4694 20.0652L64.0259 19.7866ZM62.0309 19.7866L61.5931 20.0742L61.7483 20.3104H62.0309V19.7866ZM53.7918 7.24664L54.2296 6.95902L53.268 5.49551V7.24664H53.7918ZM53.7918 19.7866V20.3104H54.3156V19.7866H53.7918ZM51.7191 19.7866H51.1953V20.3104H51.7191V19.7866ZM51.7191 5.17392V4.65012H51.1953V5.17392H51.7191ZM54.9318 5.17392L55.3705 4.88764L55.2154 4.65012H54.9318V5.17392ZM62.9636 17.4807L62.525 17.767L62.9708 18.4502L63.4065 17.7604L62.9636 17.4807ZM70.7363 5.17392V4.65012H70.4476L70.2935 4.89421L70.7363 5.17392ZM73.975 5.17392H73.4512V19.7866H73.975H74.4988V5.17392H73.975ZM73.975 19.7866V19.2628H71.9022V19.7866V20.3104H73.975V19.7866ZM71.9022 19.7866H72.426V7.24664H71.9022H71.3784V19.7866H71.9022ZM71.9022 7.24664L71.4587 6.96804L63.5823 19.508L64.0259 19.7866L64.4694 20.0652L72.3458 7.52524L71.9022 7.24664ZM64.0259 19.7866V19.2628H62.0309V19.7866V20.3104H64.0259V19.7866ZM62.0309 19.7866L62.4687 19.499L54.2296 6.95902L53.7918 7.24664L53.354 7.53426L61.5931 20.0742L62.0309 19.7866ZM53.7918 7.24664H53.268V19.7866H53.7918H54.3156V7.24664H53.7918ZM53.7918 19.7866V19.2628H51.7191V19.7866V20.3104H53.7918V19.7866ZM51.7191 19.7866H52.2429V5.17392H51.7191H51.1953V19.7866H51.7191ZM51.7191 5.17392V5.69772H54.9318V5.17392V4.65012H51.7191V5.17392ZM54.9318 5.17392L54.4932 5.46019L62.525 17.767L62.9636 17.4807L63.4023 17.1944L55.3705 4.88764L54.9318 5.17392ZM62.9636 17.4807L63.4065 17.7604L71.1792 5.45362L70.7363 5.17392L70.2935 4.89421L62.5208 17.201L62.9636 17.4807ZM70.7363 5.17392V5.69772H73.975V5.17392V4.65012H70.7363V5.17392ZM82.8099 19.8643L82.8509 19.3422L82.8099 19.8643ZM80.4263 19.4498L80.2644 19.948L80.2718 19.9503L80.2792 19.9525L80.4263 19.4498ZM78.794 18.6466L78.4517 19.043L78.4613 19.0513L78.4712 19.0591L78.794 18.6466ZM77.8354 17.2994L77.3511 17.4988L77.3547 17.5075L77.3586 17.5161L77.8354 17.2994ZM77.3431 15.3821L76.8218 15.4329L76.8225 15.44L76.8234 15.4471L77.3431 15.3821ZM77.3431 9.57846L76.823 9.51503L76.8218 9.5276L77.3431 9.57846ZM77.8354 7.66119L77.3561 7.44974L77.3532 7.45662L77.8354 7.66119ZM78.794 6.31392L79.1257 6.71932L79.1276 6.71774L78.794 6.31392ZM80.4522 5.51074L80.5994 6.01344H80.5994L80.4522 5.51074ZM82.8099 5.09619L82.769 4.574L82.7682 4.57406L82.8099 5.09619ZM90.0904 5.09619L90.0486 5.61832L90.0494 5.61839L90.0904 5.09619ZM92.474 5.51074L92.3269 6.01344H92.3269L92.474 5.51074ZM94.1063 6.31392L93.7639 6.71034L93.7735 6.71861L93.7835 6.72641L94.1063 6.31392ZM95.0649 7.66119L94.5806 7.86062L94.5842 7.86935L94.5881 7.87794L95.0649 7.66119ZM95.5572 9.57846L95.0357 9.62933L95.0373 9.64186L95.5572 9.57846ZM95.5572 15.3821L95.0371 15.3187L95.036 15.33L95.5572 15.3821ZM95.0649 17.2994L94.5856 17.0879L94.5827 17.0948L95.0649 17.2994ZM94.1063 18.6466L94.438 19.052L94.4399 19.0505L94.1063 18.6466ZM92.474 19.4498L92.6245 19.9516L92.6323 19.9491L92.474 19.4498ZM90.1163 19.8643L90.0753 19.3422L90.1163 19.8643ZM89.3649 17.6103L89.3918 18.1335L89.4051 18.1325L89.3649 17.6103ZM91.2045 17.2994L91.3463 17.8036L91.2045 17.2994ZM92.4481 16.7553L92.7624 17.1743L92.7705 17.1682L92.7784 17.1618L92.4481 16.7553ZM93.1477 15.7448L93.6301 15.9489V15.9489L93.1477 15.7448ZM93.4845 14.268L92.9631 14.2175L92.9623 14.2259L92.9618 14.2343L93.4845 14.268ZM93.3808 9.96709L92.8666 10.0666L92.8681 10.0746L92.8699 10.0825L93.3808 9.96709ZM92.8367 8.59391L92.3893 8.86626L92.3964 8.87781L92.404 8.88899L92.8367 8.59391ZM91.619 7.73891L91.7709 7.23763L91.619 7.73891ZM89.6758 7.37619L89.625 7.89751L89.6262 7.89763L89.6758 7.37619ZM83.2245 7.37619L83.1748 6.85475L83.1736 6.85486L83.2245 7.37619ZM81.3072 7.73891L81.1553 7.23763H81.1553L81.3072 7.73891ZM80.0636 8.59391L79.6248 8.30776L79.6217 8.3127L80.0636 8.59391ZM79.5195 9.96709L79.0086 9.85172L79.0068 9.85961L79.0052 9.86756L79.5195 9.96709ZM79.4159 14.268L78.8932 14.3017L78.8937 14.3101L78.8945 14.3184L79.4159 14.268ZM79.7786 15.7448L80.261 15.5407L79.7786 15.7448ZM80.4781 16.7553L80.1478 17.1618L80.1557 17.1682L80.1639 17.1743L80.4781 16.7553ZM81.7218 17.2994L81.58 17.8036L81.7218 17.2994ZM83.5613 17.6103L83.5211 18.1327L83.5345 18.1334L83.5613 17.6103ZM86.774 19.968V19.4442H86.1522V19.968V20.4918H86.774V19.968ZM86.1522 19.968V19.4442C84.8123 19.4442 83.7131 19.4098 82.8509 19.3422L82.8099 19.8643L82.769 20.3865C83.6686 20.4571 84.7976 20.4918 86.1522 20.4918V19.968ZM82.8099 19.8643L82.8509 19.3422C81.9992 19.2754 81.241 19.1425 80.5734 18.9471L80.4263 19.4498L80.2792 19.9525C81.028 20.1717 81.8589 20.3152 82.769 20.3865L82.8099 19.8643ZM80.4263 19.4498L80.5882 18.9517C79.9321 18.7384 79.4497 18.4946 79.1169 18.2341L78.794 18.6466L78.4712 19.0591C78.9329 19.4204 79.5387 19.7121 80.2644 19.948L80.4263 19.4498ZM78.794 18.6466L79.1364 18.2502C78.826 17.9821 78.5476 17.6003 78.3123 17.0826L77.8354 17.2994L77.3586 17.5161C77.6414 18.1385 78.0021 18.6547 78.4517 19.043L78.794 18.6466ZM77.8354 17.2994L78.3198 17.0999C78.0973 16.5596 77.944 15.9662 77.8629 15.3171L77.3431 15.3821L76.8234 15.4471C76.915 16.1798 77.0899 16.8645 77.3511 17.4988L77.8354 17.2994ZM77.3431 15.3821L77.8645 15.3312C77.7976 14.6463 77.7633 13.7666 77.7633 12.6875H77.2395H76.7157C76.7157 13.7848 76.7505 14.7015 76.8218 15.4329L77.3431 15.3821ZM77.2395 12.6875H77.7633V12.273H77.2395H76.7157V12.6875H77.2395ZM77.2395 12.273H77.7633C77.7633 11.1939 77.7976 10.3142 77.8645 9.62932L77.3431 9.57846L76.8218 9.5276C76.7505 10.259 76.7157 11.1757 76.7157 12.273H77.2395ZM77.3431 9.57846L77.8631 9.64186C77.9444 8.97505 78.0976 8.38446 78.3176 7.86576L77.8354 7.66119L77.3532 7.45662C77.0896 8.07792 76.9146 8.7655 76.8232 9.51505L77.3431 9.57846ZM77.8354 7.66119L78.3146 7.87261C78.5503 7.33838 78.826 6.96455 79.1257 6.71931L78.794 6.31392L78.4624 5.90852C78.0021 6.2851 77.6387 6.80945 77.3562 7.44976L77.8354 7.66119ZM78.794 6.31392L79.1276 6.71774C79.4518 6.44994 79.9322 6.20871 80.5994 6.01344L80.4522 5.51074L80.3051 5.00803C79.5559 5.2273 78.9308 5.52153 78.4604 5.91009L78.794 6.31392ZM80.4522 5.51074L80.5994 6.01344C81.2678 5.81779 82.0178 5.68504 82.8517 5.61832L82.8099 5.09619L82.7682 4.57406C81.8748 4.64553 81.053 4.78914 80.3051 5.00803L80.4522 5.51074ZM82.8099 5.09619L82.8509 5.61839C83.7131 5.55076 84.8123 5.51635 86.1522 5.51635V4.99255V4.46876C84.7976 4.46876 83.6686 4.50344 82.769 4.574L82.8099 5.09619ZM86.1522 4.99255V5.51635H86.774V4.99255V4.46876H86.1522V4.99255ZM86.774 4.99255V5.51635C88.1141 5.51635 89.2043 5.55077 90.0486 5.61832L90.0904 5.09619L90.1322 4.57406C89.2492 4.50343 88.1285 4.46876 86.774 4.46876V4.99255ZM90.0904 5.09619L90.0494 5.61839C90.9012 5.68519 91.6593 5.81806 92.3269 6.01344L92.474 5.51074L92.6212 5.00803C91.8724 4.78887 91.0414 4.64538 90.1313 4.574L90.0904 5.09619ZM92.474 5.51074L92.3269 6.01344C92.9941 6.20873 93.4608 6.44858 93.7639 6.71034L94.1063 6.31392L94.4487 5.91749C93.9917 5.52288 93.3703 5.22728 92.6212 5.00803L92.474 5.51074ZM94.1063 6.31392L93.7835 6.72641C94.0932 6.96877 94.3645 7.33579 94.5806 7.86062L95.0649 7.66119L95.5493 7.46175C95.2817 6.81204 94.914 6.28088 94.4291 5.90142L94.1063 6.31392ZM95.0649 7.66119L94.5881 7.87794C94.8203 8.38884 94.9716 8.97079 95.0359 9.62932L95.5572 9.57846L96.0785 9.5276C96.0046 8.76976 95.8277 8.07353 95.5418 7.44444L95.0649 7.66119ZM95.5572 9.57846L95.0373 9.64186C95.1201 10.3211 95.1629 11.1963 95.1629 12.273H95.6867H96.2105C96.2105 11.1734 96.167 10.2521 96.0771 9.51505L95.5572 9.57846ZM95.6867 12.273H95.1629V12.6875H95.6867H96.2105V12.273H95.6867ZM95.6867 12.6875H95.1629C95.1629 13.7643 95.1201 14.6394 95.0373 15.3187L95.5572 15.3821L96.0771 15.4455C96.167 14.7084 96.2105 13.7872 96.2105 12.6875H95.6867ZM95.5572 15.3821L95.036 15.33C94.972 15.9704 94.8207 16.5552 94.5857 17.0879L95.0649 17.2994L95.5442 17.5108C95.8273 16.869 96.0043 16.1756 96.0784 15.4342L95.5572 15.3821ZM95.0649 17.2994L94.5827 17.0948C94.3672 17.6029 94.0933 17.9779 93.7727 18.2428L94.1063 18.6466L94.4399 19.0505C94.9138 18.659 95.279 18.1358 95.5471 17.5039L95.0649 17.2994ZM94.1063 18.6466L93.7746 18.2412C93.4653 18.4943 92.9899 18.7367 92.3157 18.9505L92.474 19.4498L92.6323 19.9491C93.3745 19.7138 93.9873 19.4207 94.438 19.052L94.1063 18.6466ZM92.474 19.4498L92.3235 18.9481C91.6752 19.1426 90.9271 19.2754 90.0753 19.3422L90.1163 19.8643L90.1573 20.3865C91.0673 20.3152 91.891 20.1716 92.6245 19.9515L92.474 19.4498ZM90.1163 19.8643L90.0753 19.3422C89.2131 19.4098 88.1139 19.4442 86.774 19.4442V19.968V20.4918C88.1287 20.4918 89.2576 20.4571 90.1573 20.3865L90.1163 19.8643ZM86.204 17.6621V18.1859H86.7222V17.6621V17.1383H86.204V17.6621ZM86.7222 17.6621V18.1859C87.8146 18.1859 88.7055 18.1686 89.3918 18.1334L89.3649 17.6103L89.3381 17.0872C88.6771 17.121 87.8061 17.1383 86.7222 17.1383V17.6621ZM89.3649 17.6103L89.4051 18.1325C90.1073 18.0785 90.7552 17.9698 91.3463 17.8036L91.2045 17.2994L91.0627 16.7951C90.5484 16.9398 89.9699 17.0384 89.3248 17.088L89.3649 17.6103ZM91.2045 17.2994L91.3463 17.8036C91.9256 17.6407 92.4112 17.4377 92.7624 17.1743L92.4481 16.7553L92.1338 16.3362C91.9323 16.4874 91.5888 16.6471 91.0627 16.7951L91.2045 17.2994ZM92.4481 16.7553L92.7784 17.1618C93.1413 16.867 93.4184 16.4492 93.6301 15.9489L93.1477 15.7448L92.6653 15.5407C92.4969 15.9386 92.3077 16.1945 92.1178 16.3487L92.4481 16.7553ZM93.1477 15.7448L93.6301 15.9489C93.8451 15.4405 93.9692 14.89 94.0072 14.3017L93.4845 14.268L92.9618 14.2343C92.9306 14.7169 92.8302 15.1509 92.6653 15.5407L93.1477 15.7448ZM93.4845 14.268L94.0058 14.3184C94.06 13.7591 94.086 13.0321 94.086 12.1435H93.5622H93.0384C93.0384 13.0167 93.0126 13.706 92.9631 14.2175L93.4845 14.268ZM93.5622 12.1435H94.086C94.086 11.2112 94.025 10.4418 93.8918 9.85172L93.3808 9.96709L92.8699 10.0825C92.9785 10.5633 93.0384 11.2448 93.0384 12.1435H93.5622ZM93.3808 9.96709L93.8951 9.86756C93.7804 9.27487 93.5756 8.74769 93.2695 8.29884L92.8367 8.59391L92.404 8.88899C92.6161 9.20013 92.774 9.58841 92.8666 10.0666L93.3808 9.96709ZM92.8367 8.59391L93.2842 8.32157C92.9582 7.78609 92.4286 7.43692 91.7709 7.23763L91.619 7.73891L91.4671 8.2402C91.9495 8.38637 92.2316 8.60719 92.3893 8.86626L92.8367 8.59391ZM91.619 7.73891L91.7709 7.23763C91.1612 7.05286 90.4782 6.92644 89.7255 6.85475L89.6758 7.37619L89.6262 7.89763C90.3243 7.96412 90.9369 8.07952 91.4671 8.2402L91.619 7.73891ZM89.6758 7.37619L89.7267 6.85486C88.9935 6.78333 87.9893 6.74875 86.7222 6.74875V7.27255V7.79635C87.9769 7.79635 88.9418 7.83086 89.625 7.89751L89.6758 7.37619ZM86.7222 7.27255V6.74875H86.204V7.27255V7.79635H86.7222V7.27255ZM86.204 7.27255V6.74875C84.9366 6.74875 83.9245 6.78336 83.1748 6.85475L83.2245 7.37619L83.2742 7.89763C83.9754 7.83084 84.9496 7.79635 86.204 7.79635V7.27255ZM83.2245 7.37619L83.1736 6.85486C82.4376 6.92667 81.7639 7.05321 81.1553 7.23763L81.3072 7.73891L81.4591 8.2402C81.9906 8.07916 82.595 7.96388 83.2754 7.89751L83.2245 7.37619ZM81.3072 7.73891L81.1553 7.23763C80.4984 7.4367 79.9671 7.78304 79.6248 8.30778L80.0636 8.59391L80.5023 8.88005C80.6783 8.61024 80.9761 8.38659 81.4591 8.2402L81.3072 7.73891ZM80.0636 8.59391L79.6217 8.3127C79.3413 8.75335 79.1399 9.26987 79.0086 9.85172L79.5195 9.96709L80.0304 10.0825C80.1409 9.59341 80.3023 9.19448 80.5055 8.87513L80.0636 8.59391ZM79.5195 9.96709L79.0052 9.86756C78.8924 10.4504 78.8402 11.2138 78.8402 12.1435H79.364H79.8878C79.8878 11.2422 79.9393 10.5547 80.0338 10.0666L79.5195 9.96709ZM79.364 12.1435H78.8402C78.8402 13.0295 78.8576 13.7502 78.8932 14.3017L79.4159 14.268L79.9386 14.2343C79.9051 13.7148 79.8878 13.0192 79.8878 12.1435H79.364ZM79.4159 14.268L78.8945 14.3184C78.9509 14.9014 79.0835 15.4461 79.2962 15.9489L79.7786 15.7448L80.261 15.5407C80.0937 15.1453 79.9844 14.7055 79.9372 14.2175L79.4159 14.268ZM79.7786 15.7448L79.2962 15.9489C79.5078 16.4492 79.785 16.867 80.1478 17.1618L80.4781 16.7553L80.8084 16.3487C80.6186 16.1945 80.4293 15.9386 80.261 15.5407L79.7786 15.7448ZM80.4781 16.7553L80.1639 17.1743C80.5151 17.4377 81.0007 17.6407 81.58 17.8036L81.7218 17.2994L81.8636 16.7951C81.3374 16.6471 80.9939 16.4874 80.7924 16.3362L80.4781 16.7553ZM81.7218 17.2994L81.58 17.8036C82.1711 17.9698 82.819 18.0785 83.5211 18.1325L83.5613 17.6103L83.6015 17.088C82.9564 17.0384 82.3779 16.9398 81.8636 16.7951L81.7218 17.2994ZM83.5613 17.6103L83.5345 18.1334C84.2208 18.1686 85.1116 18.1859 86.204 18.1859V17.6621V17.1383C85.1201 17.1383 84.2491 17.121 83.5881 17.0872L83.5613 17.6103ZM116.265 5.17392L116.722 5.43118L117.162 4.65012H116.265V5.17392ZM108.026 19.7866V20.3104H108.332L108.483 20.0439L108.026 19.7866ZM105.513 19.7866L105.058 20.0451L105.208 20.3104H105.513V19.7866ZM97.2223 5.17392V4.65012H96.3228L96.7667 5.4324L97.2223 5.17392ZM100.098 5.17392L100.557 4.92122L100.408 4.65012H100.098V5.17392ZM106.705 17.1698L106.246 17.4225L106.703 18.2523L107.163 17.424L106.705 17.1698ZM113.364 5.17392V4.65012H113.055L112.906 4.91971L113.364 5.17392ZM116.265 5.17392L115.809 4.91666L107.57 19.5294L108.026 19.7866L108.483 20.0439L116.722 5.43118L116.265 5.17392ZM108.026 19.7866V19.2628H105.513V19.7866V20.3104H108.026V19.7866ZM105.513 19.7866L105.969 19.5281L97.6778 4.91544L97.2223 5.17392L96.7667 5.4324L105.058 20.0451L105.513 19.7866ZM97.2223 5.17392V5.69772H100.098V5.17392V4.65012H97.2223V5.17392ZM100.098 5.17392L99.6393 5.42661L106.246 17.4225L106.705 17.1698L107.164 16.9171L100.557 4.92122L100.098 5.17392ZM106.705 17.1698L107.163 17.424L113.822 5.42813L113.364 5.17392L112.906 4.91971L106.247 16.9156L106.705 17.1698ZM113.364 5.17392V5.69772H116.265V5.17392V4.65012H113.364V5.17392ZM126.892 14.268L126.509 13.9115L126.369 14.0623V14.268H126.892ZM126.892 19.7866V20.3104H127.416V19.7866H126.892ZM124.794 19.7866H124.27V20.3104H124.794V19.7866ZM124.794 14.268H125.318V14.0627L125.178 13.9121L124.794 14.268ZM116.373 5.17392V4.65012H115.174L115.989 5.52979L116.373 5.17392ZM119.56 5.17392L119.952 4.8268L119.796 4.65012H119.56V5.17392ZM125.934 12.3766L125.541 12.7237L125.938 13.1716L126.33 12.7197L125.934 12.3766ZM132.178 5.17392V4.65012H131.939L131.782 4.83081L132.178 5.17392ZM135.339 5.17392L135.723 5.53038L136.54 4.65012H135.339V5.17392ZM126.892 14.268H126.369V19.7866H126.892H127.416V14.268H126.892ZM126.892 19.7866V19.2628H124.794V19.7866V20.3104H126.892V19.7866ZM124.794 19.7866H125.318V14.268H124.794H124.27V19.7866H124.794ZM124.794 14.268L125.178 13.9121L116.758 4.81805L116.373 5.17392L115.989 5.52979L124.409 14.6239L124.794 14.268ZM116.373 5.17392V5.69772H119.56V5.17392V4.65012H116.373V5.17392ZM119.56 5.17392L119.168 5.52103L125.541 12.7237L125.934 12.3766L126.326 12.0295L119.952 4.8268L119.56 5.17392ZM125.934 12.3766L126.33 12.7197L132.574 5.51702L132.178 5.17392L131.782 4.83081L125.538 12.0335L125.934 12.3766ZM132.178 5.17392V5.69772H135.339V5.17392V4.65012H132.178V5.17392ZM135.339 5.17392L134.955 4.81746L126.509 13.9115L126.892 14.268L127.276 14.6245L135.723 5.53038L135.339 5.17392ZM146.465 5.17392L146.922 4.91789L146.772 4.65012H146.465V5.17392ZM154.652 19.7866V20.3104H155.546L155.109 19.5306L154.652 19.7866ZM152.346 19.7866L151.886 20.0372L152.035 20.3104H152.346V19.7866ZM150.61 16.5998L151.07 16.3492L150.921 16.076H150.61V16.5998ZM139.443 16.5998V16.076H139.137L138.987 16.343L139.443 16.5998ZM138.614 18.1284L139.074 18.38L139.076 18.3755L138.614 18.1284ZM137.681 19.7866V20.3104H137.98L138.132 20.0531L137.681 19.7866ZM135.401 19.7866L134.948 19.5245L134.494 20.3104H135.401V19.7866ZM143.848 5.17392V4.65012H143.546L143.394 4.91179L143.848 5.17392ZM140.635 14.4753L140.179 14.2185L139.739 14.9991H140.635V14.4753ZM149.47 14.4753V14.9991H150.36L149.928 14.2209L149.47 14.4753ZM145.454 7.24664L145.912 6.99226L145.762 6.72284H145.454V7.24664ZM144.832 7.24664V6.72284H144.532L144.38 6.98272L144.832 7.24664ZM142.708 10.8739L142.256 10.6088L142.255 10.6103L142.708 10.8739ZM146.465 5.17392L146.008 5.42995L154.195 20.0426L154.652 19.7866L155.109 19.5306L146.922 4.91789L146.465 5.17392ZM154.652 19.7866V19.2628H152.346V19.7866V20.3104H154.652V19.7866ZM152.346 19.7866L152.806 19.5361L151.07 16.3492L150.61 16.5998L150.15 16.8504L151.886 20.0372L152.346 19.7866ZM150.61 16.5998V16.076H139.443V16.5998V17.1236H150.61V16.5998ZM139.443 16.5998L138.987 16.343C138.828 16.6249 138.549 17.139 138.152 17.8814L138.614 18.1284L139.076 18.3755C139.474 17.6324 139.747 17.1275 139.9 16.8566L139.443 16.5998ZM138.614 18.1284L138.155 17.8769C137.758 18.6008 137.451 19.1476 137.231 19.5201L137.681 19.7866L138.132 20.0531C138.361 19.6656 138.676 19.107 139.074 18.38L138.614 18.1284ZM137.681 19.7866V19.2628H135.401V19.7866V20.3104H137.681V19.7866ZM135.401 19.7866L135.855 20.0487L144.301 5.43604L143.848 5.17392L143.394 4.91179L134.948 19.5245L135.401 19.7866ZM143.848 5.17392V5.69772H146.465V5.17392V4.65012H143.848V5.17392ZM140.635 14.4753V14.9991H149.47V14.4753V13.9515H140.635V14.4753ZM149.47 14.4753L149.928 14.2209L145.912 6.99226L145.454 7.24664L144.996 7.50102L149.012 14.7296L149.47 14.4753ZM145.454 7.24664V6.72284H144.832V7.24664V7.77044H145.454V7.24664ZM144.832 7.24664L144.38 6.98272C143.897 7.81118 143.189 9.01978 142.256 10.6088L142.708 10.8739L143.16 11.1391C144.092 9.54986 144.801 8.34028 145.285 7.51057L144.832 7.24664ZM142.708 10.8739L142.255 10.6103C141.339 12.1827 140.647 13.3859 140.179 14.2185L140.635 14.4753L141.092 14.7321C141.556 13.9065 142.245 12.7087 143.16 11.1375L142.708 10.8739Z" fill="white" mask="url(#path-1-outside-1_3758_11762)"/>
<g clip-path="url(#clip0_3758_11762)">
<path d="M25.2243 11.1719C25.3212 11.2867 26.2946 10.4523 26.4369 10.3313C29.8674 7.4467 33.0966 4.28649 36.5271 1.39729C38.4891 0.0146974 41.0854 1.09566 41.5774 3.4352L41.5744 21.2007C39.6321 27.763 30.5456 22.9078 34.7649 17.3759L40.3602 12.4733C39.2808 11.5225 37.7563 11.5608 36.5891 12.3309C32.3911 15.5953 28.5609 19.8931 24.3871 23.11C19.6471 26.7647 15.2159 21.1899 18.3345 17.4479L24.0101 12.4733C22.9262 11.5654 21.3896 11.5424 20.242 12.334C16.0864 15.6198 12.3152 19.6772 8.18836 22.9568C3.30754 26.8367 -1.5112 21.3063 2.43554 16.9855L20.2678 1.33604C21.6272 0.394413 23.5302 0.714414 24.546 1.98217C24.7171 2.195 25.2243 3.09223 25.2243 3.28668V11.1719Z" fill="white"/>
</g>
<defs>
<clipPath id="clip0_3758_11762">
<rect width="40.5952" height="23.5714" fill="white" transform="translate(0.982422 0.786621)"/>
</clipPath>
</defs>
</svg>
